<svg id="Layer_1" data-name="Layer 1" xmlns="http://www.w3.org/2000/svg" viewBox="0 0 678.76 500.14"><defs><style>.cls-1{opacity:0.31;}.cls-2{fill:#f2d1d1;}</style></defs><g class="cls-1"><path class="cls-2" d="M69.05,483.07C6.58,423.44-8.34,301.69,49.52,217c48.23-70.56,137.06-143.13,249-164.29s210-21.13,252.42,6.82c34.71,22.87,18.58,54.72,7.69,81.79C544.1,177.49,542,206.18,601.74,258.68c68.23,59.93,86.7,82.42,90.12,140.37,2.78,47.13-36.56,110.52-88.19,119.61-71.88,12.64-98.56-20.76-168.88-43.28-56.41-18.06-95.54-9.62-146.68,25S160.73,570.59,69.05,483.07Z" transform="translate(-13.24 -37.64)"/></g></svg>