<svg id="Layer_1" data-name="Layer 1" xmlns="http://www.w3.org/2000/svg" viewBox="0 0 1920.5 515.71"><defs><style>.cls-1,.cls-2{fill:#fff8e7;}.cls-1{opacity:0.46;}</style></defs><path class="cls-1" d="M-.5,41H1920l-.5,263.5c-94.72,94.65-235.33,202-399,192-160.76-9.79-194.27-123.61-358-127-212.79-4.4-294.77,185-456,139-85.45-24.38-91.5-85.88-183-156-87.68-67.19-240.94-132.42-524-92Z" transform="translate(0.5)"/><path class="cls-2" d="M-.5,0H1920l-.5,263.5c-94.72,94.65-235.33,202-399,192-160.76-9.79-194.27-123.61-358-127-212.79-4.4-294.77,185-456,139-85.45-24.38-91.5-85.88-183-156-87.68-67.19-240.94-132.42-524-92Z" transform="translate(0.5)"/></svg>